<svg xmlns="http://www.w3.org/2000/svg" xmlns:xlink="http://www.w3.org/1999/xlink" version="1.1" x="0px" y="0px" viewBox="0 0 132 165" enable-background="new 0 0 132 132" xml:space="preserve"><g><path d="M74.8,1.5H30.7c-1.8,0-3.2,1.4-3.2,3.2v14.7c0,1.8,1.4,3.2,3.2,3.2h44.1c1.8,0,3.2-1.4,3.2-3.2V4.7   C78,2.9,76.6,1.5,74.8,1.5z M71.5,15.1c0,0.6-0.4,1-1,1H35.1c-0.6,0-1-0.4-1-1V9h2v5h33.4V9h2V15.1z"/><g><g><path d="M95.4,122.7c0,0.6-0.4,1-1,1H30.4c-0.3,0-0.5-0.1-0.7-0.3l-19.2-19.3c0,0-0.1-0.1-0.1-0.1c0,0-0.1-0.1-0.1-0.2     c0,0,0-0.1-0.1-0.2c0-0.1,0-0.1,0-0.2c0,0,0-0.1,0-0.1V15.3c0-0.6,0.4-1,1-1h14.4V7.8H4.4c-0.6,0-1,0.4-1,1v120.7     c0,0.5,0.4,1,1,1h96.7c0.6,0,1-0.5,1-1v-24.1l-6.7,6.1V122.7z"/><path d="M101.1,7.8H80v6.5h14.4c0.6,0,1,0.4,1,1V71l2.1-5.8l4.6-12.6V8.8C102.1,8.2,101.7,7.8,101.1,7.8z"/></g><g><rect x="24.5" y="57.1" width="7.3" height="7.3"/><rect x="24.5" y="81.9" width="7.3" height="7.3"/><rect x="24.5" y="32.2" width="7.3" height="7.3"/><path d="M93.4,76.6V16.3H80v3.1c0,2.9-2.3,5.2-5.2,5.2H30.7c-2.9,0-5.2-2.3-5.2-5.2v-3.1H12.1v86.1h18.3c0.6,0,1,0.5,1,1v18.3     h62.1v-8.3l-0.4,0.9c-0.7,1.5-2.5,2.2-4,1.5c-1.5-0.7-2.2-2.5-1.5-4l0.3-0.8l-1.7-12.3c-0.1-0.9,0-1.9,0.2-2.8L93.4,76.6z      M39.9,33.1h27.5v2H39.9V33.1z M39.9,58h27.5v2H39.9V58z M39.9,82.9h27.5v2H39.9V82.9z M33.8,90.3c0,0.5-0.4,1-1,1h-9.3     c-0.6,0-1-0.5-1-1v-9.3c0-0.6,0.4-1,1-1h9.3c0.6,0,1,0.4,1,1V90.3z M33.8,65.4c0,0.5-0.4,1-1,1h-9.3c-0.6,0-1-0.5-1-1v-9.3     c0-0.6,0.4-1,1-1h9.3c0.6,0,1,0.4,1,1V65.4z M33.8,40.6c0,0.5-0.4,1-1,1h-9.3c-0.6,0-1-0.5-1-1v-9.3c0-0.5,0.4-1,1-1h9.3     c0.6,0,1,0.5,1,1V40.6z M82,91.3H39.9v-2H82V91.3z M82,66.4H39.9v-2H82V66.4z M82,41.6H39.9v-2H82V41.6z"/></g><polygon points="29.4,120.3 29.4,104.4 13.5,104.4   "/></g><g><path d="M125.8,27.3l-1,2.6c-7.5-2.7-7.2-2.6-7.9-2.8l1-2.7c0.8-2.1,3.2-3.3,5.3-2.5C125.4,22.8,126.5,25.2,125.8,27.3z"/></g><g><path d="M88.2,98.5l13.2,4.7c0,0,0,0,0,0l-9.6,8.9l-0.6,1.3c-0.2,0.5-0.8,0.7-1.3,0.5l0,0c-0.5-0.2-0.7-0.8-0.5-1.3l0.6-1.3    L88.2,98.5L88.2,98.5z"/><polygon points="113.1,71.9 102.5,101.5 88.4,96.5 99.1,66.9   "/><path d="M128.2,46.9l-7,19.1l-1.9-0.7l7-19.1c0.7-2-0.2-4.1-2-5.1l-4,11.1L113.8,70l-14.1-5l12-33c0.6-1.7,2.3-2.9,4.1-2.9    c0.5,0,1,0.1,1.5,0.3c0.1,0,6.4,2.3,6,2.1c0.4,0.1,0.7,0.3,1,0.6c1.6,1.1,2.2,3.2,1.6,4.9l-0.8,2.2    C127.9,40.5,129.3,43.9,128.2,46.9z"/></g></g><text x="0" y="147" fill="#000000" font-size="5px" font-weight="bold" font-family="'Helvetica Neue', Helvetica, Arial-Unicode, Arial, Sans-serif">Created by Vectors Point</text><text x="0" y="152" fill="#000000" font-size="5px" font-weight="bold" font-family="'Helvetica Neue', Helvetica, Arial-Unicode, Arial, Sans-serif">from the Noun Project</text></svg>