<svg xmlns="http://www.w3.org/2000/svg" xmlns:xlink="http://www.w3.org/1999/xlink" version="1.1" x="0px" y="0px" viewBox="0 0 131 163.75" enable-background="new 0 0 131 131" xml:space="preserve"><g><path d="M66.9191895,10.1777344h-9.1503906c-0.8666992-4.7148438-4.5869141-8.1679688-8.9638672-8.1679688h-0.5151367   c-4.5885963,0-8.1446228,3.7039533-8.965332,8.1679688h-9.128418c-0.5522461,0-1,0.4472656-1,1v5.3408203H9.3659668   c-1.7319336,0-3.140625,1.4140625-3.140625,3.1513672v102.2119141c0,1.7314453,1.4086914,3.1396484,3.140625,3.1396484h78.362793   c1.7319336,0,3.140625-1.4082031,3.140625-3.1396484V19.6699219c0-1.7373047-1.4086914-3.1513672-3.140625-3.1513672H67.9191895   v-5.3408203C67.9191895,10.625,67.4714355,10.1777344,66.9191895,10.1777344z M31.1960449,12.1777344h8.9960938   c0.5136719,0,0.9438477-0.3896484,0.9951172-0.9003906c0.3885918-3.8941679,3.304821-7.2675781,7.1025391-7.2675781h0.5151367   c3.621582,0,6.675293,3.1259766,7.1030273,7.2705078c0.0527344,0.5097656,0.4819336,0.8974609,0.9946289,0.8974609h9.0166016   c0,3.7624235,0,6.9462776,0,10.6923828H31.1960449C31.1960449,19.1237602,31.1960449,15.9402323,31.1960449,12.1777344z    M87.7287598,18.5185547c0.6289063,0,1.140625,0.5166016,1.140625,1.1513672v102.2119141   c0,0.6279297-0.5117188,1.1396484-1.140625,1.1396484c-80.6743088-0.5192566-79.503418,1.0819702-79.503418-1.1396484V19.6699219   c0-0.6347656,0.5117188-1.1513672,1.140625-1.1513672h19.8300781v5.3515625c0,0.5527344,0.4477539,1,1,1h36.7231445   c0.5522461,0,1-0.4472656,1-1v-5.3515625H87.7287598z"/><path d="M31.0505371,37.8603516H16.4489746c-0.5522461,0-1,0.4472656-1,1v14.6025391c0,0.5527344,0.4477539,1,1,1h14.6015625   c0.5522461,0,1-0.4472656,1-1V38.8603516C32.0505371,38.3076172,31.6027832,37.8603516,31.0505371,37.8603516z    M17.4489746,52.4628906V39.8603516h12.6015625v1.4287109l-7.5922852,7.5927734l-2.5527344-2.5537109l-1.4140625,1.4140625   l3.2597656,3.2607422c0.1875,0.1875,0.4418945,0.2929688,0.7070313,0.2929688s0.5195313-0.1054688,0.7070313-0.2929688   l6.8852539-6.8857422v8.3457031H17.4489746z"/><rect x="40.1276855" y="40.4960938" width="40.5185547" height="2"/><rect x="40.1276855" y="49.3867188" width="17.4511719" height="2"/><path d="M16.4489746,66.2226563c-1.8423595,0-0.6168919,2.2525406-1,15.6015625c0,1.8423615,2.2525253,0.6173096,15.6015625,1   c1.8423576,0,0.6168919-2.2525406,1-15.6015625C32.0505371,66.6699219,29.7980118,66.6053467,16.4489746,66.2226563z    M17.4489746,80.8242188V68.2226563h12.6015625v1.6279297l-7.5922852,7.5927734l-2.5527344-2.5537109l-1.4140625,1.4140625   c3.2453957,3.1156845,3.2438927,3.5537109,3.9667969,3.5537109c0.2651367,0,0.5195313-0.1054688,0.7070313-0.2929688   l6.8852539-6.8857422v8.1455078H17.4489746z"/><rect x="40.1276855" y="68.8583984" width="40.5185547" height="2"/><rect x="40.1276855" y="77.7480469" width="17.4511719" height="2"/><path d="M16.4489746,94.5839844c-1.8423595,0-0.6169167,2.2535095-1,15.6025391c0,1.8423615,2.2525253,0.6173096,15.6015625,1   c1.8423576,0,0.6169167-2.2535095,1-15.6025391C32.0505371,95.03125,29.7980118,94.9666748,16.4489746,94.5839844z    M17.4489746,109.1865234V96.5839844h12.6015625v1.828125l-7.5922852,7.5927734l-2.5527344-2.5537109l-1.4140625,1.4140625   c3.2453957,3.1156845,3.2438927,3.5537109,3.9667969,3.5537109c0.2651367,0,0.5195313-0.1054688,0.7070313-0.2929688   l6.8852539-6.8857422v7.9462891H17.4489746z"/><rect x="40.1276855" y="97.2197266" width="40.5185547" height="2"/><rect x="40.1276855" y="106.1103516" width="17.4511719" height="2"/><path d="M48.5627441,16.7001953c2.8789063,0,5.2207031-2.3466797,5.2207031-5.2304688   c0-2.8847656-2.3417969-5.2314453-5.2207031-5.2314453c-2.8842773,0-5.230957,2.3466797-5.230957,5.2314453   C43.3317871,14.3535156,45.6784668,16.7001953,48.5627441,16.7001953z M48.5627441,8.2382813   c1.7758789,0,3.2207031,1.4492188,3.2207031,3.2314453c0,1.78125-1.4448242,3.2304688-3.2207031,3.2304688   c-1.7817383,0-3.230957-1.4492188-3.230957-3.2304688C45.3317871,9.6875,46.7810059,8.2382813,48.5627441,8.2382813z"/><path d="M118.9870605,5.8261719h-9.2749023c-3.190918,0-5.7871094,2.5957031-5.7871094,5.7871094   c0,11.8497429,0,79.7330322,0,96.2099609c0,0.4820099-0.0776672-0.0478897,9.519043,20.5908203   c0.1640625,0.3515625,0.5175781,0.5761719,0.9057617,0.5761719s0.7416992-0.2246094,0.9057617-0.5761719   c10.0155487-21.4518661,9.4955826-20.1982117,9.5106201-20.5493164c0.0006104-0.0146484,0.0084229-0.0268555,0.0084229-0.0415039   c0-14.8969498,0-84.8502579,0-96.2099609C124.7746582,8.421875,122.1784668,5.8261719,118.9870605,5.8261719z    M105.9250488,19.3632813h7.4248047v87.4599609h-7.4248047V19.3632813z M115.3498535,19.3632813h7.4248047v87.4599609h-7.4248047   V19.3632813z M105.9250488,11.6132813c0-2.0878906,1.6987305-3.7871094,3.7871094-3.7871094h9.2749023   c2.0883789,0,3.7875977,1.6992188,3.7875977,3.7871094v5.75h-16.8496094V11.6132813z M114.3498535,125.6279297   l-7.8535156-16.8046875h15.7070313L114.3498535,125.6279297z"/></g><text x="0" y="146" fill="#000000" font-size="5px" font-weight="bold" font-family="'Helvetica Neue', Helvetica, Arial-Unicode, Arial, Sans-serif">Created by Vectors Point</text><text x="0" y="151" fill="#000000" font-size="5px" font-weight="bold" font-family="'Helvetica Neue', Helvetica, Arial-Unicode, Arial, Sans-serif">from the Noun Project</text></svg>